<svg width="499" height="205" viewBox="0 0 499 205" fill="none" xmlns="http://www.w3.org/2000/svg">
<path d="M120 29.9H134.4L223.8 29.8L313.3 29.5L223.8 29.1L134.4 29H120V29.9Z" fill="white"/>
<path d="M314.1 25H312.7V34H314.1V25Z" fill="white"/>
<path d="M194.4 29.5C219.9 28.2 220.9 27.1 222.2 0C223.4 27.1 224.5 28.1 250 29.5C224.5 30.8 223.5 31.9 222.2 59C220.9 31.8 219.9 30.8 194.4 29.5Z" fill="white"/>
<path d="M247.7 84.9998H266.2L382.1 84.7998L497.9 84.3998L382.1 83.8998L266.2 83.7998H247.7V84.9998Z" fill="white"/>
<path d="M498.9 78.5996H497.1V90.1997H498.9V78.5996Z" fill="white"/>
<path d="M343.9 84.3998C377 82.6998 378.3 81.2998 379.9 46.2998C381.5 81.3998 382.8 82.6998 415.9 84.3998C382.8 86.0998 381.5 87.4998 379.9 122.5C378.3 87.4998 377 86.0998 343.9 84.3998Z" fill="white"/>
<path d="M0 149.2H27.5L199.3 149L371.1 148.3L199.3 147.7L27.5 147.4H0V149.2Z" fill="white"/>
<path d="M372.4 139.7H369.8V156.9H372.4V139.7Z" fill="white"/>
<path d="M142.7 148.3C191.7 145.8 193.6 143.7 196 91.7C198.4 143.7 200.3 145.7 249.3 148.3C200.3 150.8 198.4 152.9 196 204.9C193.6 152.9 191.7 150.9 142.7 148.3Z" fill="white"/>
</svg>
