<svg width="471" height="30" viewBox="0 0 471 30" fill="none" xmlns="http://www.w3.org/2000/svg">
<path d="M43 1.69995H34.9V26.7999H43V1.69995Z" fill="white"/>
<path d="M80.3 1.69995H72.2001V26.7999H80.3V1.69995Z" fill="white"/>
<path d="M109.6 1.69995H101.5V26.7999H109.6V1.69995Z" fill="white"/>
<path d="M182.4 1.69995H174.3V26.7999H182.4V1.69995Z" fill="white"/>
<path d="M198.5 1.69995H190.4V26.7999H198.5V1.69995Z" fill="white"/>
<path d="M220.5 1.69995H212.4V26.7999H220.5V1.69995Z" fill="white"/>
<path d="M462.8 0.100098H454.7V30.0001H462.8V0.100098Z" fill="white"/>
<path d="M441 0.100098H432.9V28.4001H441V0.100098Z" fill="white"/>
<path d="M429 0H420.9V28.5H429V0Z" fill="white"/>
<path d="M372.6 0H364.5V28.5H372.6V0Z" fill="white"/>
<path d="M352.8 0H344.7V28.5H352.8V0Z" fill="white"/>
<path d="M231.2 0H223.1V28.5H231.2V0Z" fill="white"/>
<path d="M258.2 0.100098H250.1V28.6001H258.2V0.100098Z" fill="white"/>
<path d="M341.6 0H333.5V28.5H341.6V0Z" fill="white"/>
<path d="M309.1 0H301V28.5H309.1V0Z" fill="white"/>
<path d="M69.2001 1.69995H61.1V26.7999H69.2001V1.69995Z" fill="white"/>
</svg>
