<svg width="290" height="637" viewBox="0 0 290 637" fill="none" xmlns="http://www.w3.org/2000/svg">
<path d="M115.522 312C103.822 420.9 70.1225 503.5 38.8225 500.1C7.52254 496.7 -7.77748 408.8 3.92252 300C15.6225 191.1 49.3225 108.5 80.6225 111.9C112.022 115.2 127.322 203.1 115.522 312ZM7.32254 300.3C-3.77746 403.7 10.8226 493.7 39.2226 496.7C67.6226 499.8 101.023 415 112.223 311.6C123.323 208.2 108.723 118.2 80.3225 115.2C51.9225 112.1 18.5225 196.9 7.32254 300.3Z" fill="#EC3B26"/>
<path d="M133.522 313.9C122.622 415.2 91.2225 492.1 62.0225 488.9C32.8225 485.8 18.6225 404 29.5225 302.7C40.4225 201.4 71.8225 124.5 101.022 127.7C130.122 130.8 144.422 212.6 133.522 313.9ZM32.9225 303.1C22.5225 399.2 36.1225 482.8 62.4225 485.6C88.8225 488.4 119.822 409.7 130.122 313.6C140.422 217.5 126.922 133.9 100.622 131.1C74.3225 128.2 43.2225 207 32.9225 303.1Z" fill="#EC3B26"/>
<path d="M151.522 315.9C141.422 409.6 112.322 480.7 85.3225 477.8C58.3225 474.9 45.0224 399.2 55.1224 305.5C65.2224 211.8 94.3225 140.7 121.322 143.6C148.322 146.5 161.622 222.1 151.522 315.9ZM58.4225 305.8C48.8225 394.6 61.3224 471.8 85.6224 474.4C109.922 477 138.522 404.2 148.122 315.5C157.722 226.7 145.222 149.5 120.922 146.9C96.6225 144.3 68.0225 217.1 58.4225 305.8Z" fill="#EC3B26"/>
<path d="M169.423 317.801C160.123 403.901 133.323 469.3 108.423 466.6C83.5225 463.9 71.3225 394.3 80.6225 308.2C89.9225 222 116.722 156.7 141.622 159.4C166.522 162.1 178.723 231.701 169.423 317.801ZM84.0225 308.6C75.2225 390.1 86.6225 460.901 108.923 463.301C131.123 465.701 157.422 398.9 166.122 317.4C174.922 235.9 163.523 165.1 141.223 162.7C119.023 160.3 92.7225 227.1 84.0225 308.6Z" fill="#EC3B26"/>
<path d="M187.423 319.7C178.923 398.3 154.523 457.9 131.723 455.5C108.923 453 97.7226 389.6 106.223 311C114.723 232.4 139.123 172.8 161.923 175.2C184.623 177.7 195.823 241.2 187.423 319.7ZM109.522 311.3C101.522 385.4 111.822 449.9 132.022 452.1C152.222 454.3 176.022 393.5 184.022 319.3C192.022 245.1 181.722 180.7 161.522 178.5C141.322 176.4 117.522 237.2 109.522 311.3Z" fill="#EC3B26"/>
<path d="M205.322 321.7C197.622 392.7 175.522 446.6 154.822 444.4C134.122 442.2 124.022 384.8 131.622 313.8C139.322 242.8 161.422 188.9 182.122 191.1C202.822 193.3 213.022 250.7 205.322 321.7ZM135.122 314.1C127.922 380.9 137.122 439 155.322 441C173.422 443 194.822 388.1 202.022 321.3C209.222 254.5 200.022 196.4 181.822 194.4C163.722 192.5 142.322 247.3 135.122 314.1Z" fill="#EC3B26"/>
<path d="M223.322 323.6C216.522 387 196.622 435.2 178.122 433.2C159.622 431.2 150.422 379.9 157.322 316.5C164.122 253.1 184.022 204.9 202.522 206.9C221.022 208.9 230.122 260.2 223.322 323.6ZM160.622 316.9C153.522 382.6 164.122 428.3 178.422 429.9C192.722 431.4 212.822 389 219.922 323.3C227.022 257.6 216.422 211.9 202.122 210.3C187.822 208.7 167.722 251.2 160.622 316.9Z" fill="#EC3B26"/>
<path d="M241.223 325.5C235.923 374.5 219.523 424 201.223 422C182.923 420 177.423 368.2 182.723 319.2C188.023 270.2 204.423 220.7 222.723 222.7C241.123 224.7 246.523 276.6 241.223 325.5ZM186.223 319.6C180.023 377.2 189.223 417.3 201.723 418.7C214.223 420 231.722 382.8 237.922 325.2C244.122 267.6 234.922 227.5 222.422 226.1C209.922 224.8 192.423 262 186.223 319.6Z" fill="#EC3B26"/>
<path d="M259.223 327.5C254.623 369.8 240.422 412.6 224.522 410.9C208.622 409.2 203.822 364.4 208.422 322C213.022 279.7 227.222 236.9 243.122 238.6C259.022 240.3 263.823 285.1 259.223 327.5ZM211.723 322.4C206.423 371.9 214.222 406.4 224.922 407.6C235.622 408.7 250.622 376.7 255.922 327.2C261.222 277.7 253.423 243.2 242.723 242C232.023 240.8 217.023 272.8 211.723 322.4Z" fill="#EC3B26"/>
<path d="M277.222 329.4C273.422 364.6 261.822 401.2 247.722 399.7C233.722 398.2 230.122 359.9 233.922 324.7C237.722 289.5 249.322 252.9 263.422 254.4C277.422 255.9 281.022 294.2 277.222 329.4ZM237.322 325.1C232.922 365.9 239.522 395.4 248.122 396.4C256.722 397.3 269.422 369.9 273.822 329.1C278.222 288.3 271.622 258.8 263.022 257.8C254.422 256.9 241.722 284.3 237.322 325.1Z" fill="#EC3B26"/>
<path d="M198.823 0C181.823 0 165.923 15.2003 152.223 41.8003C151.123 39.8003 150.822 36.9001 150.522 32.6001C149.522 45.2001 148.722 45.7002 128.422 46.2002C140.822 46.6002 145.923 47 148.323 50C139.923 68.4 132.423 91.3001 126.223 117.6C126.323 117.6 126.322 117.6 126.422 117.6C132.822 91.4001 140.522 68.9 149.122 51.5C149.922 53.4 150.222 56.1 150.522 60C151.522 47.4 152.322 46.8999 172.622 46.3999C161.322 45.9999 156.122 45.7003 153.422 43.3003C165.322 22.3003 178.822 10.5 193.122 10.5C240.522 10.6 278.522 140.9 278.122 301.5C277.722 444.7 246.922 563.7 206.622 587.6C199.822 582.1 198.623 572.5 197.323 555.4C195.623 576.1 194.123 585.7 182.823 590.5C155.723 581.1 132.522 529 119.122 454.4C118.922 454.3 118.822 454.3 118.622 454.2C130.222 521.1 149.323 571.7 172.223 593.3C163.023 594.8 150.023 595.3 131.823 595.8C191.923 597.8 194.322 599.3 197.122 636.5C200.122 599.3 202.522 597.8 262.622 596.2C244.422 595.6 231.523 595 222.223 593.5C260.623 557.6 289.023 441 289.323 302.7C289.823 135.6 249.323 0.1 198.823 0Z" fill="#EC3B26"/>
</svg>
