<svg width="413" height="413" viewBox="0 0 413 413" fill="none" xmlns="http://www.w3.org/2000/svg">
<path d="M412.4 206.1C412.4 319.8 319.9 412.3 206 412.2C92.4003 412.2 0.200324 320 0.000324414 206.3C-0.199676 92.5 92.1003 0.1 206.1 0C320.1 0.1 412.4 92.3 412.4 206.1ZM125.5 347.1C174.8 347.1 222.5 347.1 270.5 347.1C268.5 335.2 264.7 324.3 258.8 314.4C253.1 304.7 246.3 295.6 240.7 287.3C266.8 296.8 297.5 296.2 324.3 311C326 307.9 327.4 305.3 329.3 302C323.6 299.6 318.7 296.9 313.4 295.6C300 292.2 286.4 289.5 272.9 286.4C261.7 283.9 250.5 281.4 240.9 274.4C234.7 269.9 232.1 264 232.2 256.5C232.3 249.1 232.4 241.6 232.1 234.2C231.4 217.6 230 201.1 223.3 185.6C219.1 175.9 213.1 167.3 203.1 163.2C193.9 159.4 194.1 155.6 194.8 147.7C195 145.9 195.4 144 195.6 142.2C196.4 135.2 193.9 129.1 189.8 123.8C184.9 117.4 176.6 116 169.8 119.9C162.9 123.8 159.4 132.7 161.7 139.9C163.4 145.2 165.1 150.5 166 155.9C166.6 159.6 164.3 161.2 160.4 160.8C150.8 159.9 141.3 159.2 131.7 158.5C128.9 158.3 126.1 158.5 122.6 158.5C123.6 155.7 123.9 153.6 124.9 152C132.5 139.2 140.2 126.4 156.2 122.5C157.7 122.1 159 121.4 160.5 120.9C213.5 103.2 266.5 85.6 319.5 67.9C321.6 67.2 323.8 66.6 325.9 65.9C325.7 65.2 325.6 64.5 325.4 63.8C316.2 65.4 306.8 66.1 297.9 68.8C266.4 78.5 235.1 88.6 203.9 99C182.4 106.1 161.2 114 139.9 121.5C137 122.5 134.5 123.5 132 120.1C130.4 117.8 127.6 117.1 125.2 120.2C124.3 121.3 122.6 121.7 121.4 122.6C118.9 124.6 116.2 126.4 114.1 128.8C111.1 132.1 108 134.4 103.2 134C99.9003 133.7 96.5004 133.7 93.4004 134.5C85.1004 136.4 81.8003 143.8 86.0003 151.2C87.7003 154.2 90.5003 156.6 92.8003 159.3C95.3003 162.2 98.0003 165 100.5 167.9C102.5 170.3 102.2 172.9 100.2 175.2C97.1003 178.8 94.1004 182.4 90.9004 185.9C86.9004 190.5 86.7004 193.6 91.4004 197.4C95.0004 200.4 99.1004 203.2 103.4 204.8C118.3 210.2 133.4 215.1 148.5 219.8C151.9 220.9 153.7 222.3 154.8 225.9C158.4 238.5 164.3 250.1 172.4 260.5C174.3 262.9 177.6 265.2 177.7 267.7C177.9 270.5 175.2 273.4 173.7 276.3C173.3 277 172.9 277.8 172.4 278.5C164.8 290.3 157.3 302.1 149.4 313.8C144.4 321.2 138.9 328.2 133.7 335.4C131 338.9 128.6 342.5 125.5 347.1Z" fill="#EC3B26"/>
<path d="M125.5 347.1C128.6 342.6 131 339 133.6 335.5C138.8 328.3 144.3 321.2 149.3 313.9C157.1 302.3 164.6 290.4 172.3 278.6C172.8 277.9 173.2 277.2 173.6 276.4C175.1 273.5 177.7 270.6 177.6 267.8C177.5 265.3 174.2 263 172.3 260.6C164.2 250.2 158.4 238.6 154.7 226C153.7 222.4 151.8 221 148.4 219.9C133.3 215.1 118.2 210.2 103.3 204.9C99.0003 203.3 94.9003 200.5 91.3003 197.5C86.6003 193.7 86.8003 190.6 90.8003 186C93.9003 182.5 97.0004 178.9 100.1 175.3C102.1 173 102.4 170.4 100.4 168C97.9004 165 95.3003 162.3 92.7003 159.4C90.4003 156.8 87.6004 154.3 85.9004 151.3C81.8004 143.9 85.1003 136.5 93.3003 134.6C96.5003 133.9 99.9004 133.9 103.1 134.1C107.9 134.5 111 132.2 114 128.9C116.1 126.5 118.8 124.7 121.3 122.7C122.5 121.8 124.2 121.4 125.1 120.3C127.5 117.3 130.2 118 131.9 120.2C134.4 123.6 137 122.6 139.8 121.6C161.1 114.1 182.4 106.2 203.8 99.0999C235 88.6999 266.3 78.4999 297.8 68.8999C306.6 66.1999 316.1 65.4999 325.3 63.8999C325.5 64.5999 325.6 65.2999 325.8 65.9999C323.7 66.6999 321.5 67.2999 319.4 67.9999C266.4 85.5999 213.4 103.3 160.4 121C159 121.5 157.6 122.2 156.1 122.6C140.1 126.5 132.5 139.3 124.8 152.1C123.8 153.8 123.5 155.8 122.5 158.6C126 158.6 128.8 158.4 131.6 158.6C141.2 159.3 150.7 159.9 160.3 160.9C164.2 161.3 166.6 159.7 165.9 156C165 150.6 163.3 145.2 161.6 140C159.3 132.8 162.8 123.9 169.7 120C176.5 116.1 184.8 117.5 189.7 123.9C193.8 129.2 196.2 135.3 195.5 142.3C195.3 144.1 194.8 146 194.7 147.8C194 155.7 193.8 159.5 203 163.3C213 167.5 219 176 223.2 185.7C229.9 201.2 231.3 217.7 232 234.3C232.3 241.7 232.2 249.2 232.1 256.6C232 264.1 234.6 270 240.8 274.5C250.4 281.5 261.6 284 272.8 286.5C286.3 289.6 299.9 292.3 313.3 295.7C318.6 297 323.5 299.8 329.2 302.1C327.3 305.5 325.9 308 324.2 311.1C297.4 296.3 266.7 296.9 240.6 287.4C246.2 295.7 253 304.8 258.7 314.5C264.6 324.4 268.4 335.2 270.4 347.2C222.5 347.1 174.8 347.1 125.5 347.1Z" fill="white"/>
</svg>
