<svg width="583" height="267" viewBox="0 0 583 267" fill="none" xmlns="http://www.w3.org/2000/svg">
<path d="M288.9 103.4C188.1 103.4 109.1 80.7 109.1 51.7C109.1 22.7 188.1 0 288.9 0C389.7 0 468.7 22.7 468.7 51.7C468.7 80.7 389.7 103.4 288.9 103.4ZM288.9 3.09985C193.1 3.09985 112.2 25.3 112.2 51.7C112.2 78 193.1 100.3 288.9 100.3C384.7 100.3 465.6 78.1 465.6 51.7C465.6 25.4 384.7 3.09985 288.9 3.09985Z" fill="#EC3B26"/>
<path d="M288.9 120C195.1 120 121.6 98.8999 121.6 71.8999C121.6 44.8999 195.1 23.7998 288.9 23.7998C382.7 23.7998 456.2 44.8999 456.2 71.8999C456.2 98.7999 382.7 120 288.9 120ZM288.9 26.7998C199.9 26.7998 124.7 47.3998 124.7 71.7998C124.7 96.1998 199.9 116.8 288.9 116.8C377.9 116.8 453.1 96.1998 453.1 71.7998C453.1 47.3998 377.9 26.7998 288.9 26.7998Z" fill="white"/>
<path d="M288.9 136.6C202.1 136.6 134.1 117 134.1 92C134.1 67 202.1 47.3999 288.9 47.3999C375.7 47.3999 443.7 67 443.7 92C443.7 117 375.7 136.6 288.9 136.6ZM288.9 50.5C206.7 50.5 137.2 69.5 137.2 92C137.2 114.5 206.7 133.5 288.9 133.5C371.1 133.5 440.6 114.5 440.6 92C440.6 69.5 371.2 50.5 288.9 50.5Z" fill="white"/>
<path d="M288.9 153.2C209.1 153.2 146.6 135.1 146.6 112.1C146.6 88.9999 209.1 71 288.9 71C368.7 71 431.2 89.0999 431.2 112.1C431.2 135.2 368.7 153.2 288.9 153.2ZM288.9 74.0999C213.5 74.0999 149.7 91.4999 149.7 112.1C149.7 132.7 213.4 150.1 288.9 150.1C364.3 150.1 428.1 132.7 428.1 112.1C428.1 91.4999 364.4 74.0999 288.9 74.0999Z" fill="#EC3B26"/>
<path d="M288.9 169.9C216.1 169.9 159.1 153.4 159.1 132.3C159.1 111.2 216.1 94.7 288.9 94.7C361.7 94.7 418.7 111.2 418.7 132.3C418.7 153.4 361.7 169.9 288.9 169.9ZM288.9 97.7998C220.2 97.7998 162.2 113.6 162.2 132.3C162.2 151 220.2 166.8 288.9 166.8C357.6 166.8 415.6 151 415.6 132.3C415.6 113.6 357.6 97.7998 288.9 97.7998Z" fill="white"/>
<path d="M288.9 186.5C223.1 186.5 171.6 171.5 171.6 152.4C171.6 133.3 223.1 118.3 288.9 118.3C354.7 118.3 406.2 133.3 406.2 152.4C406.2 171.5 354.7 186.5 288.9 186.5ZM288.9 121.4C227 121.4 174.7 135.6 174.7 152.4C174.7 169.2 227 183.4 288.9 183.4C350.8 183.4 403.1 169.2 403.1 152.4C403.1 135.6 350.8 121.4 288.9 121.4Z" fill="#EC3B26"/>
<path d="M288.9 203.1C230.1 203.1 184.1 189.7 184.1 172.5C184.1 155.4 230.1 141.9 288.9 141.9C347.7 141.9 393.7 155.3 393.7 172.5C393.7 189.7 347.7 203.1 288.9 203.1ZM288.9 145.1C228.1 145.1 187.2 159.3 187.2 172.6C187.2 185.9 228.1 200.1 288.9 200.1C349.7 200.1 390.6 185.9 390.6 172.6C390.6 159.3 349.8 145.1 288.9 145.1Z" fill="white"/>
<path d="M288.9 219.8C243.5 219.8 196.6 209.7 196.6 192.7C196.6 175.8 243.5 165.6 288.9 165.6C334.3 165.6 381.2 175.7 381.2 192.7C381.2 209.6 334.3 219.8 288.9 219.8ZM288.9 168.8C235.6 168.8 199.7 181.2 199.7 192.8C199.7 204.4 235.5 216.8 288.9 216.8C342.3 216.8 378.1 204.4 378.1 192.8C378.1 181.1 342.3 168.8 288.9 168.8Z" fill="#EC3B26"/>
<path d="M288.9 236.4C249.7 236.4 209.1 227.6 209.1 212.9C209.1 198.2 249.7 189.4 288.9 189.4C328.1 189.4 368.7 198.2 368.7 212.9C368.7 227.6 328.2 236.4 288.9 236.4ZM288.9 192.4C243 192.4 212.2 203 212.2 212.8C212.2 222.7 243 233.2 288.9 233.2C334.8 233.2 365.6 222.6 365.6 212.8C365.6 203 334.8 192.4 288.9 192.4Z" fill="white"/>
<path d="M288.9 253C256.3 253 221.6 246 221.6 233C221.6 220 256.3 213 288.9 213C321.5 213 356.2 220 356.2 233C356.2 246 321.6 253 288.9 253ZM288.9 216.1C251.1 216.1 224.7 225 224.7 233C224.7 241 251.1 249.9 288.9 249.9C326.7 249.9 353.1 241 353.1 233C353.1 225 326.8 216.1 288.9 216.1Z" fill="#EC3B26"/>
<path d="M582.8 148.8C581.2 133.3 565.6 120.2 539.9 110.3C541.6 109.1 544.2 108.5 548.2 107.8C536.6 108.1 536.1 107.4 533.5 88.8999C534.4 100.3 534.5 105 531.9 107.5C514.2 101.6 492.6 96.9999 467.9 93.8999C467.9 93.9999 467.9 93.9999 467.9 94.0999C492.5 97.2999 513.8 102.2 530.7 108.4C529 109.3 526.6 109.9 523.1 110.5C534.7 110.2 535.2 110.9 537.8 129.4C537 119 536.8 114.2 538.7 111.6C559.1 120.4 571.2 131.6 572.6 144.7C577.2 188.1 461.6 235.7 314.6 251.2C183.4 265 71.5 248.5 45.6 214C50 207.2 58.6 205.2 74.2 202.3C55.1 202.8 46.1 202.4 40.7 192.5C46.6 166.8 92.1 140.4 159 120.7C159 120.5 159.1 120.4 159.1 120.2C99 137.4 54.6 159.9 37 183C34.7 174.7 32.9999 162.9 30.7999 146.3C34.8999 201.5 33.8 203.8 0 210.1C34.4 209.2 35.9 211.2 43.4 266.1C42.1 249.4 41.4 237.5 41.9 228.9C78.6 260.5 188.1 275 314.7 261.7C467.6 245.5 587.6 195 582.8 148.8Z" fill="white"/>
</svg>
