<svg width="323" height="323" viewBox="0 0 323 323" fill="none" xmlns="http://www.w3.org/2000/svg">
<path d="M161.4 5L177.1 123.5L237.5 85.3L199.4 145.7L317.9 161.4L199.4 177.1L237.5 237.5L177.1 199.4L161.4 317.9L145.7 199.4L85.3 237.5L123.5 177.1L5 161.4L123.5 145.7L85.3 85.3L145.7 123.5L161.4 5ZM161.4 0C158.9 0 156.8 1.90005 156.4 4.30005L141.7 115L87.9 81C87.1 80.5 86.2 80.2 85.2 80.2C83.9 80.2 82.6 80.7 81.7 81.7C80 83.4 79.8 85.8999 81 87.8999L115 141.7L4.3 156.4C1.8 156.7 0 158.8 0 161.4C0 164 1.9 166 4.3 166.4L115 181.1L81 234.9C79.8 236.9 80 239.5 81.7 241.1C82.7 242.1 83.9 242.6 85.2 242.6C86.1 242.6 87 242.3 87.9 241.8L141.7 207.8L156.4 318.5C156.7 321 158.8 322.8 161.4 322.8C164 322.8 166 320.9 166.4 318.5L181.1 207.8L234.9 241.8C235.7 242.3 236.6 242.6 237.6 242.6C238.9 242.6 240.2 242.1 241.1 241.1C242.8 239.4 243 236.9 241.8 234.9L207.8 181.1L318.5 166.4C321 166.1 322.8 164 322.8 161.4C322.8 158.8 320.9 156.8 318.5 156.4L207.8 141.7L241.8 87.8999C243 85.8999 242.8 83.3 241.1 81.7C240.1 80.7 238.9 80.2 237.6 80.2C236.7 80.2 235.8 80.5 234.9 81L181.1 115L166.4 4.30005C166 1.90005 163.9 0 161.4 0Z" fill="white"/>
</svg>
