<svg width="311" height="63" viewBox="0 0 311 63" fill="none" xmlns="http://www.w3.org/2000/svg">
<path d="M14.2 3L3 14.2L20.6 31.8L3 49.5L14.2 60.7L31.7999 43L49.5 60.7L60.7 49.5L43 31.8L60.7 14.2L49.5 3L31.7999 20.5999L14.2 3Z" stroke="white" stroke-width="3" stroke-miterlimit="10"/>
<path d="M96.6 3L85.3999 14.2L103 31.8L85.3999 49.5L96.6 60.7L114.2 43L131.9 60.7L143.1 49.5L125.4 31.8L143.1 14.2L131.9 3L114.2 20.5999L96.6 3Z" stroke="#EC3B26" stroke-width="3" stroke-miterlimit="10"/>
<path d="M179 3L167.8 14.2L185.4 31.8L167.8 49.5L179 60.7L196.7 43L214.3 60.7L225.5 49.5L207.9 31.8L225.5 14.2L214.3 3L196.7 20.5999L179 3Z" stroke="white" stroke-width="3" stroke-miterlimit="10"/>
<path d="M261.4 3L250.2 14.2L267.9 31.8L250.2 49.5L261.4 60.7L279.1 43L296.7 60.7L307.9 49.5L290.3 31.8L307.9 14.2L296.7 3L279.1 20.5999L261.4 3Z" stroke="#EC3B26" stroke-width="3" stroke-miterlimit="10"/>
</svg>
