<svg width="379" height="94" viewBox="0 0 379 94" fill="none" xmlns="http://www.w3.org/2000/svg">
<path d="M377.3 1.09985H1.70007V92.8999H377.3V1.09985Z" fill="black"/>
<path d="M378.4 94H0.599976V0H378.4V94ZM2.80005 91.8999H376.2V2.19995H2.80005V91.8999Z" fill="white"/>
<path d="M297.1 47H341.3L287 22.5999C308.4 31.8999 297.1 47 297.1 47Z" fill="black"/>
<path d="M346.4 48.0999H294.9L296.2 46.3999C296.2 46.2999 300.2 40.8999 298.6 34.8999C297.4 30.5999 293.8 27.1 287.8 24.2L286.5 23.5999L287.4 21.5999C287.8 21.7999 288.3 22 288.7 22.2L346.4 48.0999ZM299.1 45.8999H336.2L297.7 28.5999C299.2 30.2999 300.2 32.2 300.8 34.3C302.1 39.2 300.3 43.5999 299.1 45.8999Z" fill="white"/>
<path d="M287 71.3999L341.3 47H297.1C297.1 47 308.4 62.1999 287 71.3999Z" fill="black"/>
<path d="M287.4 72.3999L286.5 70.3999L287.8 69.8C293.8 67 297.5 63.3999 298.6 59.0999C300.2 53.0999 296.3 47.5999 296.2 47.5999L294.9 45.8999H346.3L288.6 71.8C288.3 72.1 287.9 72.1999 287.4 72.3999ZM299.1 48.0999C300.3 50.3999 302.1 54.8 300.8 59.7C300.2 61.8 299.2 63.6999 297.7 65.3999L336.2 48.0999H299.1Z" fill="white"/>
<path d="M341.3 45.8999H27.9V48.0999H341.3V45.8999Z" fill="white"/>
</svg>
