<svg width="393" height="395" viewBox="0 0 393 395" fill="none" xmlns="http://www.w3.org/2000/svg">
<path d="M196.186 214.901C206.116 214.901 214.166 206.835 214.166 196.885C214.166 186.936 206.116 178.871 196.186 178.871C186.255 178.871 178.205 186.936 178.205 196.885C178.205 206.835 186.255 214.901 196.186 214.901Z" fill="#EC3B26"/>
<path d="M339.558 214.901C349.489 214.901 357.539 206.835 357.539 196.885C357.539 186.936 349.489 178.871 339.558 178.871C329.628 178.871 321.578 186.936 321.578 196.885C321.578 206.835 329.628 214.901 339.558 214.901Z" fill="#EC3B26"/>
<path d="M339.558 358.784C349.489 358.784 357.539 350.718 357.539 340.768C357.539 330.819 349.489 322.754 339.558 322.754C329.628 322.754 321.578 330.819 321.578 340.768C321.578 350.718 329.628 358.784 339.558 358.784Z" fill="#EC3B26"/>
<path d="M392.315 49.6821C390.422 23.3704 369.366 2.03673 343.105 0.140397C326.307 -1.04481 311.166 5.35529 300.519 16.2592C292.475 24.5556 281.593 29.5335 270 29.5335H265.741C253.912 29.5335 242.793 24.5556 234.512 16.0222C224.812 6.0664 211.327 0.140397 196.422 0.140397C181.517 0.140397 168.031 6.30348 158.331 16.0222C150.051 24.5556 138.932 29.5335 127.102 29.5335H123.08C111.488 29.5335 100.368 25.0297 92.324 16.7333C90.6681 15.074 89.0116 13.4147 87.3557 11.9925C67.2462 -4.36339 37.6728 -3.88931 18.2728 13.4147C-5.14919 34.0373 -6.09553 70.0677 15.6704 91.8752C15.907 92.1122 16.1435 92.3493 16.3801 92.5864C24.8972 100.646 29.3923 112.024 29.3923 123.639V127.669C29.3923 139.521 24.424 150.662 15.9069 158.958C5.97033 168.677 0.0557043 182.188 0.0557043 197.122C0.0557043 212.055 6.20694 225.567 15.9069 235.286C24.424 243.582 29.3923 254.723 29.3923 266.575V272.027C29.3923 283.642 24.424 294.546 16.1435 302.605C5.73378 312.798 -0.65405 327.258 0.0557043 343.139C1.23863 371.11 23.9508 393.629 51.6314 394.578C67.7194 395.052 82.151 388.651 92.324 377.985C100.368 369.688 111.251 364.473 122.844 364.473H127.339C138.932 364.473 149.814 369.451 157.858 377.985C168.505 389.125 183.883 395.525 200.681 394.34C226.941 392.444 248.234 371.11 250.127 344.562C252.256 313.035 227.651 286.961 196.659 286.961C181.99 286.961 168.504 292.886 158.805 302.605C150.524 310.902 139.405 315.88 127.812 315.88H122.844C111.251 315.88 99.8949 311.376 91.6143 302.842C91.3778 302.605 91.3778 302.605 91.1412 302.368C82.6241 294.072 77.6558 282.931 77.6558 271.079V266.338C77.6558 254.486 82.6241 243.345 91.1412 235.049C101.078 225.33 106.993 211.818 106.993 196.885C106.993 181.951 100.841 168.44 91.1412 158.721C82.6241 150.425 77.6558 139.284 77.6558 127.432V123.165C77.6558 111.313 82.6241 100.172 90.9046 91.8752C91.1412 91.6386 91.1412 91.6386 91.3778 91.4015C91.6143 91.1645 91.6143 91.1645 91.8509 90.9274C100.131 82.6309 111.251 77.653 123.08 77.653H127.339C139.168 77.653 150.287 82.6309 158.568 91.1645C168.268 101.12 181.753 107.046 196.659 107.046C211.563 107.046 225.049 100.883 234.749 91.1645C243.029 82.6309 254.149 77.653 265.978 77.653H269.763C281.593 77.653 292.712 82.6309 300.993 91.1645C310.692 101.12 324.178 107.046 339.083 107.046C369.839 107.283 394.444 81.2085 392.315 49.6821Z" fill="#EC3B26"/>
</svg>
