<svg width="946" height="281" viewBox="0 0 946 281" fill="none" xmlns="http://www.w3.org/2000/svg">
<path d="M945.5 279.827H0V19.4268H945.5V279.827ZM1.7 278.127H943.8V21.0269H1.7V278.127Z" fill="#FDF6E7"/>
<path d="M1.09998 51.8268C35.4 50.1268 65.4 37.7267 94.4 25.7267C106.7 20.6267 119.5 15.3269 132.5 10.9269C176.6 -4.07308 217.6 0.827014 251.9 7.52701C261.7 9.42701 271.6 11.6267 281.1 13.7267C307.1 19.4267 334 25.4268 361.5 26.8268C397.7 28.7268 433.2 21.2271 467.6 14.1271L469.7 13.7267C473.3 12.9267 477 12.2269 480.6 11.4269C511 4.92692 542.5 -1.77308 573.4 0.426917C605.7 2.72692 635.3 15.827 663.9 28.527C674.1 33.027 684.6 37.7267 695 41.7267C735.5 57.4267 770 60.3269 810.3 51.4269C824.7 48.2269 839 44.2269 852.8 40.4269C881.6 32.4269 911.4 24.127 943.4 23.027V23.7267C911.5 24.8267 881.7 33.1271 853 41.1271C839.2 44.9271 824.9 48.9271 810.5 52.1271C770 61.0271 735.3 58.1269 694.6 42.4269C684.3 38.4269 673.7 33.7267 663.5 29.2267C635 16.6267 605.4 3.52672 573.3 1.22672C542.5 -0.973279 511.1 5.72711 480.8 12.1271C477.1 12.9271 473.5 13.7269 469.9 14.4269L467.8 14.8268C433.4 22.0268 397.8 29.4271 361.5 27.6271C334 26.2271 307 20.227 281 14.527C271.4 12.427 261.6 10.2268 251.8 8.32682C217.6 1.62682 176.8 -3.27289 133 11.6271C120 16.0271 107.2 21.3269 94.9 26.4269C65.8 38.4269 35.8 50.8271 1.29997 52.6271L1.09998 51.8268Z" fill="#FDF5E7"/>
<path d="M3.30005 233.827L3.40005 233.127C36.8001 234.927 66.8 245.527 95.7 255.827C107.9 260.127 120.5 264.627 133.3 268.427C165.4 278.027 197.2 278.027 230.8 278.027C237.9 278.027 245.2 278.027 252.5 278.127C262.2 278.227 271.9 278.427 281.6 278.627C308.5 279.027 336.4 279.527 363.8 279.427C401 279.327 433.5 272.527 470.8 262.427C508.5 252.227 540.1 246.927 573.4 245.227C603.6 243.727 633.6 238.227 662.7 232.927C672.9 231.127 683.4 229.127 693.8 227.427C738.6 220.027 771.9 218.127 809.5 230.427C824.1 235.227 838.3 240.927 852.1 246.527C880.7 258.027 910.3 269.927 943.6 273.327L943.5 274.027C910 270.627 880.4 258.627 851.7 247.127C837.9 241.627 823.7 235.827 809.2 231.127C771.8 218.927 738.7 220.727 694 228.127C683.6 229.827 673.1 231.727 662.9 233.627C633.8 238.927 603.8 244.427 573.5 245.927C539.9 247.627 509.3 252.827 471.2 263.127C433.8 273.227 401.3 280.027 363.9 280.127C336.5 280.227 308.6 279.727 281.7 279.327C272 279.127 262.3 279.027 252.6 278.827C245.3 278.727 238 278.727 231 278.727C197.3 278.727 165.4 278.627 133.2 269.027C120.4 265.227 107.7 260.727 95.5 256.327C65.1 245.727 36.5 235.627 3.30005 233.827Z" fill="#FDF5E7"/>
<path d="M3.30005 223.226L3.40005 222.527C36.5001 224.127 66.6 234.027 95.7 243.627C107.9 247.627 120.6 251.726 133.4 255.326C163.4 263.626 193.1 264.127 224.6 264.627C233.7 264.827 243.2 264.926 252.5 265.326C262.3 265.726 272.2 266.127 281.9 266.627C308.7 267.827 336.3 269.027 363.6 269.127C400.4 269.227 433 261.727 470.8 250.427C498.8 242.027 533 233.227 573.5 231.427C603.4 230.127 633.5 226.327 662.6 222.527C672.7 221.227 683.1 219.926 693.3 218.726C734.5 213.826 769.9 212.327 808.8 220.427C823.3 223.427 837.8 227.027 851.9 230.527C881.4 237.827 911.9 245.327 943.6 247.927L943.5 248.627C911.7 246.027 881.2 238.427 851.7 231.127C837.7 227.627 823.2 224.127 808.7 221.027C769.9 212.927 734.5 214.526 693.5 219.326C683.3 220.526 672.8 221.927 662.8 223.127C633.7 226.827 603.6 230.727 573.6 232.027C533.1 233.727 499.1 242.527 471.1 250.927C433.3 262.227 400.5 269.826 363.6 269.726C336.3 269.626 308.6 268.426 281.9 267.226C272.3 266.826 262.3 266.327 252.6 265.927C243.2 265.527 233.8 265.426 224.7 265.226C193.2 264.726 163.4 264.126 133.3 255.826C120.5 252.326 107.8 248.127 95.6001 244.127C66.3001 234.727 36.2001 224.926 3.30005 223.226Z" fill="#FDF5E7"/>
<path d="M3.30005 213.927V213.226C36 214.526 66.3001 223.427 95.6001 232.027C107.8 235.627 120.5 239.327 133.3 242.527C160.6 249.227 189 250.226 216.5 251.226C228.2 251.626 240.4 252.027 252.3 252.927C262.1 253.627 272.1 254.426 281.8 255.226C308.4 257.326 335.8 259.527 363 260.027C402.2 260.627 436.1 250.427 470.4 239.027C507.7 226.627 537.9 218.727 573.4 217.827C604.1 217.027 635.3 215.127 665.4 213.327C674.4 212.827 683.5 212.226 692.5 211.726C749.3 208.426 806.4 211.527 861.6 214.627C888.4 216.127 916 217.627 943.4 218.427V219.127C916 218.327 888.3 216.827 861.5 215.327C806.3 212.327 749.2 209.227 692.5 212.427C683.4 212.927 674.4 213.527 665.4 214.027C635.3 215.827 604.1 217.727 573.3 218.527C537.9 219.427 507.8 227.326 470.6 239.726C436.3 251.226 402.2 261.426 362.9 260.726C335.7 260.326 308.2 258.127 281.6 255.927C271.9 255.127 261.9 254.327 252.1 253.627C240.1 252.727 228 252.327 216.3 251.927C188.8 250.927 160.3 249.926 132.9 243.226C120.1 240.026 107.4 236.326 95.2 232.726C66.1 224.026 35.9 215.227 3.30005 213.927Z" fill="#FDF5E7"/>
<path d="M3.30005 204.927V204.227C35.7001 205.127 66.1001 212.927 95.6001 220.527C107.9 223.727 120.5 226.927 133.3 229.727C157.7 235.027 183.1 236.227 207.6 237.427C222.2 238.127 237.4 238.927 252.2 240.427C262.1 241.527 272.1 242.627 281.7 243.827C308.1 246.927 335.4 250.227 362.5 251.027C400.1 252.227 432.2 241.527 470.1 227.527C504.8 214.727 536.6 204.127 573.4 203.827C599.6 203.627 626.3 204.027 652.1 204.327C665.1 204.527 678.6 204.727 691.9 204.827C696 204.827 700.1 204.927 704.2 204.927C737.9 205.227 772.7 205.627 807 201.727C821.6 200.127 836.4 198.127 850.7 196.227C880.9 192.227 912.2 188.027 943.5 186.827V187.527C912.2 188.727 881 192.827 850.8 196.927C836.5 198.827 821.7 200.827 807.1 202.427C772.7 206.227 737.9 205.927 704.1 205.627C700 205.627 695.9 205.527 691.8 205.527C678.6 205.427 665.1 205.227 652 205.027C626.2 204.727 599.5 204.327 573.3 204.527C536.6 204.827 505 215.427 470.4 228.127C432.3 242.127 400.2 252.827 362.4 251.627C335.2 250.827 307.9 247.527 281.5 244.427C271.8 243.327 261.8 242.127 252 241.027C237.2 239.427 222.1 238.727 207.5 238.027C182.9 236.827 157.5 235.527 133 230.327C120.2 227.527 107.6 224.327 95.3 221.127C65.9 213.627 35.5 205.827 3.30005 204.927Z" fill="#FDF5E7"/>
<path d="M3.30005 195.627V194.927C35.4 195.527 66.0001 202.327 95.6001 208.927C107.9 211.627 120.6 214.527 133.3 216.827C155 220.827 177.4 222.227 199.1 223.427C216.5 224.427 234.5 225.527 252 227.927C261.8 229.327 271.8 230.827 281.5 232.327C307.7 236.427 334.9 240.627 362 241.827C401.5 243.527 436.2 229.627 469.8 216.127C502 203.227 535.3 189.827 573.3 190.127C601.1 190.427 629.5 192.727 656.8 195.027C668 195.927 679.7 196.927 691.1 197.727C727.9 200.327 766 203.027 806 192.527C820.8 188.627 835.5 184.027 849.7 179.527C879.5 170.127 910.3 160.427 943.3 157.327L943.4 158.027C910.4 161.027 879.7 170.727 850 180.127C835.8 184.627 821.1 189.227 806.2 193.127C766 203.627 727.9 201.027 691 198.427C679.6 197.627 668 196.627 656.7 195.727C629.3 193.427 601 191.127 573.2 190.827C535.4 190.427 502.2 203.827 470 216.727C436.3 230.227 401.5 244.227 361.8 242.527C334.6 241.327 307.5 237.127 281.2 233.027C271.5 231.527 261.6 230.027 251.7 228.627C234.2 226.227 216.2 225.127 198.8 224.127C177.1 222.827 154.6 221.527 132.9 217.527C120.2 215.127 107.5 212.327 95.2 209.627C65.8 203.027 35.2 196.227 3.30005 195.627Z" fill="#FDF5E7"/>
<path d="M3.30005 185.027V184.327C35.1 184.827 65.9001 190.827 95.6001 196.727C107.9 199.127 120.6 201.627 133.2 203.727C152.8 206.927 172.9 208.227 192.3 209.427C211.9 210.627 232.1 211.927 251.9 215.127C261.7 216.727 271.7 218.627 281.3 220.327C307.4 225.127 334.4 230.127 361.6 231.527C400.9 233.527 435.3 218.827 468.6 204.527L471.3 203.427C503.1 189.827 536 175.727 573.4 176.427C601.8 176.927 630.4 180.927 658.1 184.727C668.8 186.227 679.8 187.727 690.7 189.027C732.6 194.027 767.6 196.727 805.5 182.527C820.4 176.927 834.9 170.127 848.9 163.627C878.1 150.027 908.4 135.927 943.5 132.027L943.6 132.727C908.7 136.527 878.5 150.627 849.3 164.227C835.3 170.727 820.8 177.527 805.8 183.127C767.7 197.427 732.6 194.727 690.6 189.727C679.8 188.427 668.7 186.927 658 185.427C630.3 181.627 601.7 177.627 573.4 177.127C536.2 176.427 503.4 190.527 471.7 204.027L469 205.127C435.6 219.427 401.1 234.227 361.6 232.227C334.3 230.827 307.3 225.827 281.1 221.027C271.5 219.227 261.5 217.427 251.7 215.827C232 212.527 211.8 211.327 192.2 210.127C172.7 208.927 152.6 207.627 133 204.427C120.3 202.327 107.6 199.827 95.3 197.427C65.7 191.527 35 185.527 3.30005 185.027Z" fill="#FDF5E7"/>
<path d="M3.30005 172.427V171.727C34.9 172.427 65.8001 178.027 95.6001 183.427C107.9 185.627 120.6 187.927 133.2 189.927C151.7 192.727 170.6 193.927 188.8 195.127C209.5 196.427 230.9 197.727 251.8 201.527C261.6 203.327 271.5 205.227 281 207.227C307.1 212.427 334 217.927 361.4 219.127C401.6 221.027 436.1 205.727 469.5 190.927L470.1 190.627C502.1 176.427 535.1 161.827 573.3 162.327C602.3 162.727 631.3 167.627 659.3 172.327C669.5 174.027 680 175.827 690.4 177.327C731.2 183.327 767.9 186.927 805.1 171.027C819.9 164.727 834.2 156.727 848 149.027C876.9 132.827 906.8 116.127 943.5 113.627L943.6 114.327C907.1 116.827 877.3 133.527 848.5 149.627C834.7 157.327 820.4 165.327 805.6 171.727C768.2 187.727 731.3 184.027 690.4 178.027C680 176.527 669.5 174.727 659.3 173.027C631.3 168.327 602.4 163.527 573.5 163.027C535.5 162.427 502.6 177.127 470.7 191.227L470.1 191.527C436.6 206.327 402 221.727 361.6 219.827C334.2 218.527 307.2 213.127 281.1 207.827C271.5 205.927 261.7 203.927 251.9 202.127C231.1 198.427 209.7 197.027 189 195.727C170.7 194.627 151.8 193.427 133.3 190.527C120.7 188.627 108 186.327 95.7 184.027C65.7 178.727 34.8 173.127 3.30005 172.427Z" fill="#FDF5E7"/>
<path d="M3.19995 160.827L3.29996 160.127C34.3 161.927 65.6 165.327 95.8 168.727C108.1 170.127 120.8 171.527 133.3 172.827C147 174.227 160.9 175.027 174.4 175.827C200.1 177.327 226.6 178.927 252.2 184.527C262 186.627 271.9 189.127 281.6 191.527C307.7 198.027 334.6 204.627 362.4 205.627C401.9 207.027 436.5 192.427 470.1 178.227L471.5 177.627C503.3 164.227 536.2 150.327 573.5 150.827C602 151.227 630.8 155.527 658.6 159.627C669.1 161.227 680 162.827 690.7 164.227C733.3 169.727 768.7 172.727 805.4 157.727C820.3 151.627 834.7 144.127 848.6 136.827C877.6 121.627 907.7 105.827 943.8 102.827L943.9 103.527C907.9 106.527 878 122.227 849.1 137.427C835.2 144.727 820.8 152.327 805.9 158.327C769 173.427 733.4 170.327 690.7 164.827C680 163.427 669.1 161.827 658.6 160.227C630.8 156.127 602.1 151.827 573.7 151.427C536.6 150.827 503.8 164.727 472.1 178.127L470.7 178.727C437.1 192.927 402.3 207.527 362.6 206.227C334.8 205.227 307.8 198.527 281.6 192.127C272 189.727 262.1 187.327 252.3 185.127C226.8 179.627 200.3 178.027 174.7 176.427C161.2 175.627 147.3 174.827 133.6 173.427C121.1 172.127 108.4 170.727 96.1 169.327C65.4 166.127 34.1 162.627 3.19995 160.827Z" fill="#FDF5E7"/>
<path d="M2.80005 153.027V152.327C28.9 153.427 56.6001 152.727 83.4001 152.027C140.5 150.627 199.6 149.127 252.4 164.127C262.3 166.927 272.3 170.227 282 173.327C308.1 181.827 335.1 190.627 363.6 192.127C401.4 194.127 435.8 180.927 469.1 168.127L470.4 167.627C502.4 155.327 535.4 142.627 572.9 143.027C601.2 143.327 629.8 146.527 657.5 149.727C668.2 150.927 679.3 152.227 690.2 153.227C729.6 157.027 766.9 160.727 805 146.627C820 141.127 834.5 134.327 848.5 127.727C877.8 114.027 908 99.827 943.5 97.127L943.6 97.8267C908.3 100.527 878.2 114.627 849 128.327C834.9 134.927 820.4 141.727 805.4 147.227C767 161.327 729.7 157.727 690.1 153.827C679.2 152.727 668.1 151.527 657.4 150.327C629.7 147.227 601.1 143.927 572.9 143.727C535.6 143.327 502.7 156.027 470.8 168.327L469.5 168.827C436.1 181.627 401.6 194.927 363.6 192.927C335 191.427 307.9 182.527 281.8 174.027C272.1 170.827 262.1 167.627 252.2 164.827C199.5 149.827 140.6 151.327 83.5 152.727C56.7 153.427 29 154.127 2.80005 153.027Z" fill="#FDF5E7"/>
<path d="M2.40002 146.627C34 146.527 65 141.627 95 136.827C107.4 134.827 120.1 132.827 132.9 131.127C180.5 124.827 216.5 127.927 253.1 141.527C263.1 145.227 273.2 149.527 283 153.627C309.2 164.727 336.3 176.127 365.7 178.727C400.9 181.927 434.4 170.727 466.7 159.827L471.1 158.327C505.5 146.827 536.9 137.327 572.2 137.427C600.4 137.527 629 139.427 656.7 141.227C667.5 141.927 678.7 142.727 689.7 143.327L695.7 143.627C733.4 145.827 769.1 147.927 804.7 136.727C819.7 132.027 834.4 126.127 848.6 120.527C878.2 108.727 908.7 96.5269 943.4 94.5269L943.5 95.2266C909 97.2266 878.5 109.327 849 121.127C834.8 126.827 820.1 132.627 805.1 137.327C769.2 148.527 733.5 146.527 695.7 144.227L689.7 143.927C678.7 143.327 667.5 142.527 656.7 141.827C629 139.927 600.4 138.027 572.3 138.027C537.1 137.927 505.8 147.427 471.5 158.927L467.1 160.427C434.6 171.327 401.1 182.527 365.6 179.327C336 176.627 308.8 165.227 282.6 154.127C272.8 150.027 262.7 145.727 252.8 142.027C216.3 128.527 180.5 125.427 133.1 131.727C120.4 133.427 107.6 135.427 95.3 137.427C65.3 142.227 34.2 147.127 2.50002 147.227V146.627H2.40002Z" fill="#FDF5E7"/>
<path d="M2 141.727C35.1 139.827 65.4 130.027 94.8 120.627C107.1 116.627 119.9 112.527 132.8 109.027C177.6 96.8269 212.6 99.5268 253.9 118.427C263.9 123.027 274.1 128.327 284 133.527C310.3 147.227 337.5 161.527 368.1 165.527C401 169.827 435.3 160.127 465.6 151.627C467.8 151.027 470 150.427 472.2 149.727C508.8 139.427 538.3 133.027 571.9 132.827C600.1 132.627 628.8 133.127 656.5 133.627C667.3 133.827 678.5 134.027 689.5 134.227C694.7 134.327 700 134.427 705.3 134.527C738.3 135.227 772.4 135.927 804.7 127.727C819.8 123.927 834.6 119.027 848.9 114.327C878.8 104.527 909.7 94.5267 943.5 93.3267V94.0269C909.8 95.1269 878.9 105.227 849.1 114.927C834.8 119.627 819.9 124.427 804.8 128.327C772.3 136.627 738.2 135.927 705.1 135.227C699.8 135.127 694.6 135.027 689.3 134.927C678.3 134.727 667.1 134.527 656.3 134.327C628.6 133.827 599.9 133.327 571.7 133.527C538.2 133.727 508.8 140.127 472.3 150.427C470.1 151.027 467.9 151.627 465.7 152.327C435.3 160.927 400.9 170.627 367.8 166.327C337 162.227 309.8 148.027 283.4 134.227C273.6 129.127 263.4 123.727 253.4 119.227C212.4 100.527 177.5 97.8268 133 109.927C120.1 113.427 107.4 117.527 95 121.527C65.6 131.027 35.2 140.827 2 142.727V141.727Z" fill="#FDF5E7"/>
<path d="M1.5 136.127C36.3 132.527 66 118.327 94.8 104.527C107 98.627 119.7 92.6269 132.6 87.4269C151.6 79.7269 171.9 72.8267 191.2 73.7267C213.6 74.8267 234.7 85.2268 254.5 95.8268C264.6 101.227 274.3 107.227 284.7 113.627C311.1 129.927 338.4 146.727 370.1 152.027C400.8 157.127 434.4 149.327 464 142.427C467 141.727 470 141.027 473 140.327C531.6 126.927 589.6 125.927 651 124.927C663.5 124.727 676.4 124.527 689.1 124.227C698.2 124.027 707.5 123.927 716.5 123.827C745.7 123.627 775.9 123.427 804.4 117.627C819.5 114.627 834.4 110.727 848.8 106.927C879 99.1269 910.2 91.027 943.4 90.527V91.2267C910.3 91.7267 879.2 99.8271 849.1 107.627C834.7 111.427 819.7 115.227 804.6 118.327C775.9 124.127 745.7 124.327 716.5 124.527C707.5 124.627 698.2 124.627 689.1 124.927C676.3 125.227 663.4 125.427 651 125.627C589.6 126.627 531.7 127.627 473.2 140.927C470.2 141.627 467.3 142.327 464.2 143.027C434.5 149.927 400.8 157.827 369.9 152.627C338 147.327 310.7 130.427 284.2 114.127C273.9 107.727 264.1 101.727 254.1 96.3268C234.4 85.7268 213.3 75.3268 191.2 74.3268C172.1 73.4268 152 80.3269 133 87.9269C120.1 93.1269 107.4 99.227 95.2 105.027C66.4 118.827 36.6 133.127 1.60001 136.727L1.5 136.127Z" fill="#FDF5E7"/>
<path d="M1.19995 128.227C37.6 123.927 66.9 106.127 95.1 88.8268C107.2 81.4268 119.6 73.8269 132.5 67.4269C151.2 58.0269 171.2 49.527 191.2 50.527C215.5 51.827 239.3 66.0268 255 75.3268C265 81.3268 274.8 88.1267 285.2 95.2267C311.7 113.527 339.1 132.527 371.7 138.527C400.5 143.827 433.2 137.527 462 132.027C466 131.227 469.9 130.527 473.7 129.827C526.2 120.027 581 117.927 633.9 115.727C652 115.027 670.7 114.227 689 113.227C701.7 112.527 714.7 112.227 727.3 111.927C752.8 111.327 779.2 110.727 804.5 106.627C819.5 104.227 834.5 101.127 849 98.1271C879.4 91.8271 910.9 85.327 943.6 85.027V85.7267C911 86.0267 879.6 92.5268 849.2 98.8268C834.7 101.827 819.7 104.927 804.6 107.327C779.3 111.427 752.8 112.027 727.3 112.627C714.7 112.927 701.7 113.227 689 113.927C670.7 114.927 652 115.727 633.9 116.427C581 118.527 526.3 120.727 473.8 130.527C470 131.227 466.1 132.027 462.1 132.727C433.2 138.327 400.5 144.627 371.5 139.227C338.7 133.227 311.2 114.227 284.6 95.8268C274.3 88.6268 264.5 81.9269 254.5 75.9269C238.9 66.6269 215.3 52.5267 191.2 51.2267C171.5 50.2267 151.6 58.627 133 68.027C120.2 74.427 107.7 82.0269 95.7 89.4269C67.4 106.727 38 124.627 1.39996 128.927L1.19995 128.227Z" fill="#FDF5E7"/>
<path d="M1.09998 116.726C38.7 113.626 67.7 93.5269 95.7 74.1269C107.6 65.9269 119.8 57.4267 132.5 50.4267C149.3 41.1267 169.4 31.8268 191.2 33.0268C214.7 34.2268 235.6 46.3269 255.1 58.6269C265 64.8269 274.7 72.0269 285 79.6269C311.6 99.2269 339.1 119.627 372.3 125.327C399.6 130.027 431.1 124.627 458.9 119.827C464.1 118.927 469 118.127 473.9 117.327C522.6 109.527 573.1 106.927 622 104.327C644 103.227 666.7 102.027 688.9 100.327C703.7 99.2266 718.8 98.7266 733.4 98.3266C756.8 97.6266 781 96.8268 804.5 93.5268C819.5 91.4268 834.5 88.7269 849.1 86.1269C879.7 80.7269 911.4 75.1267 943.7 74.4267V75.1269C911.5 75.8269 879.8 81.4266 849.3 86.8266C834.7 89.4266 819.7 92.0265 804.7 94.2265C781.2 97.5265 757 98.3268 733.5 99.0268C718.9 99.5268 703.8 99.9268 689.1 101.027C666.8 102.627 644.1 103.827 622.1 105.027C573.3 107.627 522.8 110.227 474.1 118.027C469.2 118.827 464.3 119.627 459.2 120.527C431.3 125.327 399.7 130.727 372.2 126.027C338.8 120.327 311.2 99.9265 284.5 80.2265C274.2 72.6265 264.5 65.4265 254.6 59.2265C235.2 47.0265 214.4 35.0266 191.2 33.8266C169.7 32.7266 149.7 41.9269 133 51.1269C120.4 58.0269 108.2 66.5265 96.3 74.7265C68.2 94.2265 39.1 114.327 1.19997 117.527L1.09998 116.726Z" fill="#FDF5E7"/>
<path d="M1.10001 104.527C38.4 101.027 67.4 81.6269 95.5 62.9268C107.4 54.9268 119.8 46.7268 132.5 39.9268C149.7 30.7268 170.1 21.4267 191.2 22.7267C214.1 24.1267 235.2 35.827 254.9 47.627C264.9 53.627 274.7 60.427 285 67.627C311.5 86.027 338.9 105.027 371.5 111.027C399.1 116.027 430.8 110.527 458.9 105.627C464 104.727 468.7 103.927 473.5 103.127C530.5 93.727 589.4 92.0268 646.4 90.4268C660.4 90.0268 674.9 89.6269 689.2 89.0269C699 88.6269 709 88.4267 718.7 88.2267C747.1 87.6267 776.5 86.9267 804.7 82.7267C819.6 80.5267 834.6 77.727 849.1 75.127C879.6 69.527 911.1 63.7269 943.5 63.0269V63.7267C911.2 64.3267 879.8 70.1267 849.3 75.7267C834.8 78.4267 819.8 81.1268 804.8 83.3268C776.5 87.4268 747.1 88.1268 718.6 88.8268C708.9 89.0268 698.9 89.227 689.1 89.627C674.8 90.127 660.4 90.5269 646.3 91.0269C589.4 92.7269 530.5 94.4267 473.6 103.727C468.9 104.527 464.1 105.327 459 106.227C430.9 111.127 399 116.727 371.2 111.627C338.4 105.627 310.9 86.527 284.3 68.127C274 60.927 264.2 54.1267 254.2 48.2267C234.6 36.4267 213.5 24.9269 190.9 23.5269C170.1 22.2269 149.8 31.427 132.7 40.627C120 47.427 107.7 55.627 95.8 63.627C67.6 82.427 38.5 101.927 1 105.427L1.10001 104.527Z" fill="#FDF5E7"/>
<path d="M1.10001 95.3267C37.9 92.0267 67.1 73.827 95.3 56.127C107.3 48.627 119.7 40.8267 132.5 34.3267C149.7 25.6267 170 16.927 191.2 18.127C213.9 19.427 235.8 30.3268 254.5 40.4268C264.5 45.8268 274.3 51.9267 284.7 58.3267C311.1 74.7267 338.4 91.7269 370.1 97.0269C398.6 101.727 430.8 95.9267 459.2 90.8267C464 89.9267 468.5 89.1267 473 88.3267C543.6 76.2267 611.5 78.2268 683.3 80.4268L690.1 80.627C724 81.627 766.2 82.9266 805.6 76.7266C820.5 74.4266 835.3 71.427 849.7 68.627C879.9 62.627 911.2 56.4266 943.5 55.7266V56.4268C911.3 57.1268 880.1 63.3267 849.9 69.3267C835.5 72.2267 820.6 75.1269 805.7 77.5269C766.2 83.7269 724 82.4268 690 81.4268L683.2 81.2266C611.4 79.0266 543.6 77.027 473.1 89.127C468.6 89.927 464.1 90.727 459.3 91.627C430.8 96.827 398.5 102.627 369.8 97.8267C337.9 92.5267 310.5 75.5269 284 59.0269C273.7 52.6269 263.9 46.527 253.9 41.127C235.3 31.027 213.5 20.2268 191 18.9268C170.1 17.7268 149.9 26.4269 132.8 35.0269C120 41.5269 107.6 49.2267 95.6 56.8267C67.3 74.5267 38.1 92.9266 1 96.2266L1.10001 95.3267Z" fill="#FDF5E7"/>
<path d="M1.10001 87.7266C37.3 85.0266 66.7 68.1266 95 51.7266C107.1 44.7266 119.6 37.5269 132.5 31.5269C172.6 12.7269 207.8 13.8266 253.8 35.2266C263.8 39.9266 274 45.3269 283.8 50.5269C310.1 64.5269 337.2 78.9269 367.9 83.0269C397.8 87.0269 429.3 81.1268 459.8 75.4268C463.9 74.6268 468 73.927 472.1 73.127C505.4 67.127 538 61.727 571.7 62.127C601.5 62.427 631.4 66.327 660.3 70.127C670.4 71.427 680.9 72.8268 691.1 73.9268C722.5 77.5268 764 80.7268 806.5 73.4268C821.3 70.9268 836 67.727 850.2 64.627C880.1 58.127 911 51.427 943.2 50.627V51.3267C911.1 52.1267 880.2 58.8267 850.4 65.3267C836.1 68.4267 821.4 71.627 806.6 74.127C764 81.427 722.4 78.227 690.9 74.627C680.6 73.427 670.2 72.1267 660 70.8267C631.1 67.1267 601.3 63.2268 571.5 62.9268C537.9 62.5268 505.3 67.9268 472.1 73.9268C468.1 74.6268 464 75.4266 459.8 76.2266C429.3 81.9266 397.7 87.8267 367.6 83.8267C336.8 79.7267 309.5 65.2266 283.2 51.2266C273.4 46.0266 263.2 40.6268 253.2 35.9268C207.4 14.6268 172.5 13.6266 132.7 32.2266C119.8 38.2266 107.4 45.4268 95.3 52.4268C66.9 68.8268 37.5 85.8269 1 88.5269L1.10001 87.7266Z" fill="#FDF5E7"/>
<path d="M1.10002 80.7268C36.8 78.6268 66.3 63.1268 94.8 48.2268C107 41.8268 119.6 35.2268 132.5 29.7268C171.4 13.1268 207.5 13.5269 253.1 30.8269C263.1 34.6269 273.2 39.0268 282.9 43.2268C309.1 54.6268 336.1 66.3272 365.7 69.1272C397.6 72.1272 430.2 65.8268 461.7 59.7268C464.9 59.1268 468.1 58.527 471.2 57.927L475.3 57.1272C506.9 51.1272 539.5 44.9268 572.3 46.2268C602.5 47.5268 632.2 54.327 661 60.927C671.3 63.327 682 65.727 692.5 67.927C736.5 76.927 772.1 77.9268 807.9 71.2268C822.5 68.4268 837.1 65.0268 851.2 61.7268C880.8 54.7268 911.3 47.5271 943.4 46.5271V47.2268C911.4 48.2268 880.9 55.427 851.4 62.427C837.3 65.727 822.7 69.227 808 71.927C772.1 78.727 736.4 77.6272 692.2 68.6272C681.7 66.5272 671 64.0272 660.7 61.6272C632 55.0272 602.3 48.227 572.2 46.927C539.5 45.527 506.9 51.7268 475.4 57.7268L471.3 58.5271C468.1 59.1271 465 59.7269 461.8 60.3269C430.2 66.4269 397.5 72.7268 365.5 69.7268C335.8 66.9268 308.7 55.1268 282.4 43.7268C272.6 39.5268 262.6 35.1269 252.6 31.3269C207.2 14.1269 171.4 13.7268 132.7 30.2268C119.8 35.7268 107.2 42.3268 95 48.7268C66.4 63.7268 36.8 79.2269 0.900024 81.3269L1.10002 80.7268Z" fill="#FDF5E7"/>
<path d="M1.09998 73.127C36.2 71.527 65.9 57.4267 94.6 43.8267C106.9 38.0267 119.5 32.0268 132.5 26.9268C170 12.4268 207 12.0266 252.5 25.7266C262.4 28.7266 272.4 32.1268 282.1 35.4268C308.2 44.3268 335.1 53.5266 363.7 55.2266C398 57.2266 432.2 50.4267 465.3 43.8267L470.5 42.8267C473.6 42.2267 476.8 41.6268 479.9 40.9268C510.3 34.8268 541.8 28.4269 572.9 30.5269C603.8 32.6269 633.4 42.2269 662.1 51.5269C672.5 54.9269 683.2 58.4268 693.8 61.4268C736.9 73.8268 771.3 75.827 809.1 68.127C823.6 65.127 838.1 61.5268 852 57.9268C881.2 50.5268 911.5 42.827 943.5 41.627V42.3267C911.6 43.5267 881.4 51.127 852.2 58.627C838.2 62.227 823.8 65.8267 809.2 68.8267C771.3 76.5267 736.6 74.527 693.4 62.127C682.9 59.127 672.1 55.6266 661.7 52.2266C633.1 42.9266 603.5 33.3267 572.8 31.3267C541.8 29.2267 510.4 35.6266 480 41.7266C476.8 42.3266 473.7 43.027 470.6 43.627L465.4 44.627C432.2 51.227 398 58.0269 363.6 56.0269C334.9 54.3269 307.8 45.127 281.7 36.127C272 32.827 262 29.4268 252.2 26.4268C206.9 12.9268 170.1 13.227 132.9 27.627C119.9 32.627 107.3 38.6268 95 44.4268C66.2 58.1268 36.5 72.2267 1.19997 73.8267L1.09998 73.127Z" fill="#FDF5E7"/>
<path d="M1.09998 63.927C35.7 62.527 65.6 49.527 94.4 36.927C106.7 31.527 119.4 26.0269 132.5 21.3269C168.6 8.42686 205.5 7.52696 252 18.427C261.8 20.727 271.7 23.327 281.3 25.927C307.3 32.827 334.2 40.0271 362.1 41.1271C398.3 42.6271 434 35.3268 468.6 28.2268L469.9 27.927C473.7 27.127 477.5 26.3271 481.3 25.5271C511.5 19.2271 542.7 12.6271 573.3 15.0271C604.9 17.5271 634.5 29.3269 663.2 40.8269C673.5 44.9269 684.2 49.227 694.7 52.927C736.6 67.627 771 70.3271 810 62.0271C824.5 58.9271 838.8 55.0269 852.6 51.3269C881.6 43.5269 911.5 35.4268 943.5 34.2268V34.927C911.6 36.127 881.7 44.2271 852.8 52.0271C838.9 55.7271 824.6 59.6268 810.1 62.7268C771 71.1268 736.3 68.4272 694.3 53.6272C683.8 49.9272 673.1 45.6271 662.8 41.5271C634.2 30.1271 604.7 18.3269 573.2 15.8269C542.7 13.4269 511.6 19.9268 481.5 26.2268C477.7 27.0268 473.9 27.8271 470.1 28.6271L468.8 28.927C434.2 36.027 398.4 43.3269 362.1 41.8269C334.1 40.7269 307.2 33.5271 281.1 26.5271C271.5 24.0271 261.6 21.3271 251.8 19.0271C205.5 8.22705 168.8 9.12696 132.9 21.927C119.9 26.527 107.2 32.127 94.9 37.427C66 50.027 36 63.1271 1.19997 64.5271L1.09998 63.927Z" fill="#FDF5E7"/>
</svg>
