<svg width="571" height="547" viewBox="0 0 571 547" fill="none" xmlns="http://www.w3.org/2000/svg">
<path d="M11.3645 545.961H0.5V273.23V0.5H11.3645H22.2289V273.23V545.961H11.3645Z" fill="black" stroke="#EC3B26"/>
<mask id="path-2-inside-1_47_207" fill="white">
<path d="M91.1573 273.23V546.461H102.522H113.886V523.732V501.003H147.98H182.073V523.732V546.461H193.437H204.802V523.732V501.003H239.621H274.439V523.732V546.461H285.078H295.717L295.959 523.49L296.443 500.278L331.02 499.794L365.355 499.552V523.007V546.461H376.719H388.084V523.007V499.552H422.177H456.271V523.007V546.461H467.635H479V273.23V0H467.635H456.271V202.384V404.768L451.435 393.887C448.775 387.842 443.697 378.17 439.828 372.609C431.124 359.31 411.296 339.966 398.239 331.504L388.084 325.217V316.27L387.842 307.324L407.911 282.419C418.792 268.636 427.497 257.03 427.013 256.546C426.53 255.821 393.645 250.743 388.809 250.502C388.084 250.502 387.6 231.641 387.6 208.671V166.84L393.645 165.873C402.35 164.422 418.308 158.619 425.562 154.508C440.554 145.804 441.763 131.296 427.739 122.107C422.419 118.48 406.219 112.677 393.887 109.534L387.842 108.083V54.1625V0H377.203H365.839V51.9863V103.973L362.212 103.489C358.826 103.005 358.101 101.796 353.749 86.8051C342.868 48.6012 336.098 43.0398 308.291 48.843C302.246 50.052 296.926 51.0191 296.685 51.0191C296.443 51.0191 296.201 39.4129 296.201 25.3887V0H285.32H274.681V25.6305C274.681 39.6547 274.198 51.2609 273.472 51.2609C272.747 51.2609 265.976 50.052 258.239 48.3594C229.949 42.5562 225.355 46.6668 214.957 87.5305C211.572 100.829 210.605 103.247 207.945 103.731L205.044 103.973V51.9863V0H193.437H182.073V54.1625V108.083L176.028 109.534C148.221 116.546 139.275 121.382 133.955 131.538C127.91 143.869 143.627 157.893 171.676 164.422L182.315 167.082V208.429V250.018L164.18 252.678C154.025 253.887 145.078 255.579 144.111 256.063C142.902 256.788 148.221 264.526 162.246 282.177L182.073 307.324V316.512V325.7L174.577 330.295C150.156 346.011 129.603 370.675 117.755 398.239L113.886 407.67L113.644 203.835V0H102.28H90.9155L91.1573 273.23ZM349.396 173.852C349.88 174.819 350.847 177.479 351.331 179.897C352.056 183.282 353.507 184.975 357.376 186.667C368.982 192.229 366.564 210.363 353.507 212.781C349.638 213.507 348.913 214.232 347.22 220.277C343.835 232.85 332.471 259.69 326.426 269.845C316.996 285.562 305.148 295.959 297.41 295.959C296.443 295.959 296.201 276.857 296.201 235.752L296.685 175.786L317.963 174.819C336.581 173.852 343.11 173.368 347.462 172.401C348.187 172.401 348.913 172.885 349.396 173.852ZM273.714 176.028C275.407 176.995 274.923 295.959 273.23 295.959C265.009 295.959 249.534 280.484 240.588 263.075C237.203 256.546 231.4 242.522 227.531 231.883C221.244 213.507 220.76 212.781 216.408 211.814C210.605 210.605 208.187 208.429 206.253 202.868C204.318 196.581 206.011 192.229 215.199 181.831L222.695 173.368L247.6 174.336C261.382 175.061 272.989 175.545 273.714 176.028ZM209.638 236.719C212.781 246.391 212.781 246.149 208.429 246.149C205.044 246.149 204.802 245.666 204.802 237.686C204.802 233.092 205.285 229.223 206.011 229.223C206.736 229.223 208.429 232.609 209.638 236.719ZM365.839 238.17C365.839 246.875 365.839 247.116 362.212 246.391C360.277 246.149 358.585 245.666 358.585 245.424C358.585 245.182 361.728 235.994 363.662 230.674C365.113 227.047 365.839 229.465 365.839 238.17ZM224.387 272.021C229.707 282.902 240.346 297.168 247.116 302.971C252.194 306.84 252.194 306.84 248.809 308.049C246.875 308.533 243.006 309.016 240.346 309.016C237.444 309.016 235.026 309.5 235.026 309.984C235.026 310.467 240.83 320.623 247.842 332.229C259.206 351.089 261.624 356.409 267.911 375.752L274.923 397.756L274.681 427.739L274.198 457.721L253.887 430.157C242.764 415.165 231.883 399.932 229.465 396.789L225.113 390.986L235.752 375.752C241.555 367.289 246.391 360.036 246.391 359.31C246.391 358.585 237.203 346.253 225.838 332.229L205.044 306.115L205.527 286.287L206.011 266.218L211.089 265.251C213.748 264.768 217.133 264.284 218.101 264.042C219.068 263.317 221.728 266.702 224.387 272.021ZM363.421 265.493C365.355 266.218 365.597 269.362 365.597 286.287V306.357L345.044 331.987C333.438 346.253 324.733 358.585 325.217 359.794C325.458 360.761 330.536 368.015 336.098 375.994L346.011 390.26L343.351 394.129C341.901 396.305 330.778 412.264 318.688 429.915L296.685 461.832L296.201 429.431L295.959 397.03L302.971 375.269C309.5 355.2 311.192 351.814 324.25 331.504L338.516 309.5L329.327 308.291L320.139 307.082L328.36 298.377C332.954 293.541 339.966 284.111 343.835 277.099C350.605 265.251 351.089 264.768 356.167 264.768C358.826 264.768 362.212 265.009 363.421 265.493ZM182.073 272.747C182.073 276.374 181.831 276.374 179.171 273.956C176.27 271.296 176.512 268.878 180.139 268.878C181.348 268.878 182.073 270.329 182.073 272.747ZM394.129 269.845C394.129 270.329 392.92 272.263 391.227 274.198L388.326 277.825V273.23C388.326 269.845 388.809 268.878 391.227 268.878C392.92 268.878 394.129 269.362 394.129 269.845ZM267.911 313.127L274.681 314.82V327.877C274.681 335.614 274.198 340.208 273.472 339.483C272.021 337.548 253.403 309.016 253.403 308.291C253.403 308.049 255.096 308.533 257.272 309.742C259.206 310.709 264.042 312.16 267.911 313.127ZM308.049 323.282C302.971 331.504 298.135 338.516 297.41 339.483C296.685 340.208 296.201 335.614 296.201 327.877V314.82L302.246 313.852C305.631 313.369 309.742 311.918 311.676 310.951C313.61 309.984 315.545 309.016 316.27 309.016C316.754 308.775 313.127 315.303 308.049 323.282Z"/>
</mask>
<path d="M91.1573 273.23V546.461H102.522H113.886V523.732V501.003H147.98H182.073V523.732V546.461H193.437H204.802V523.732V501.003H239.621H274.439V523.732V546.461H285.078H295.717L295.959 523.49L296.443 500.278L331.02 499.794L365.355 499.552V523.007V546.461H376.719H388.084V523.007V499.552H422.177H456.271V523.007V546.461H467.635H479V273.23V0H467.635H456.271V202.384V404.768L451.435 393.887C448.775 387.842 443.697 378.17 439.828 372.609C431.124 359.31 411.296 339.966 398.239 331.504L388.084 325.217V316.27L387.842 307.324L407.911 282.419C418.792 268.636 427.497 257.03 427.013 256.546C426.53 255.821 393.645 250.743 388.809 250.502C388.084 250.502 387.6 231.641 387.6 208.671V166.84L393.645 165.873C402.35 164.422 418.308 158.619 425.562 154.508C440.554 145.804 441.763 131.296 427.739 122.107C422.419 118.48 406.219 112.677 393.887 109.534L387.842 108.083V54.1625V0H377.203H365.839V51.9863V103.973L362.212 103.489C358.826 103.005 358.101 101.796 353.749 86.8051C342.868 48.6012 336.098 43.0398 308.291 48.843C302.246 50.052 296.926 51.0191 296.685 51.0191C296.443 51.0191 296.201 39.4129 296.201 25.3887V0H285.32H274.681V25.6305C274.681 39.6547 274.198 51.2609 273.472 51.2609C272.747 51.2609 265.976 50.052 258.239 48.3594C229.949 42.5562 225.355 46.6668 214.957 87.5305C211.572 100.829 210.605 103.247 207.945 103.731L205.044 103.973V51.9863V0H193.437H182.073V54.1625V108.083L176.028 109.534C148.221 116.546 139.275 121.382 133.955 131.538C127.91 143.869 143.627 157.893 171.676 164.422L182.315 167.082V208.429V250.018L164.18 252.678C154.025 253.887 145.078 255.579 144.111 256.063C142.902 256.788 148.221 264.526 162.246 282.177L182.073 307.324V316.512V325.7L174.577 330.295C150.156 346.011 129.603 370.675 117.755 398.239L113.886 407.67L113.644 203.835V0H102.28H90.9155L91.1573 273.23ZM349.396 173.852C349.88 174.819 350.847 177.479 351.331 179.897C352.056 183.282 353.507 184.975 357.376 186.667C368.982 192.229 366.564 210.363 353.507 212.781C349.638 213.507 348.913 214.232 347.22 220.277C343.835 232.85 332.471 259.69 326.426 269.845C316.996 285.562 305.148 295.959 297.41 295.959C296.443 295.959 296.201 276.857 296.201 235.752L296.685 175.786L317.963 174.819C336.581 173.852 343.11 173.368 347.462 172.401C348.187 172.401 348.913 172.885 349.396 173.852ZM273.714 176.028C275.407 176.995 274.923 295.959 273.23 295.959C265.009 295.959 249.534 280.484 240.588 263.075C237.203 256.546 231.4 242.522 227.531 231.883C221.244 213.507 220.76 212.781 216.408 211.814C210.605 210.605 208.187 208.429 206.253 202.868C204.318 196.581 206.011 192.229 215.199 181.831L222.695 173.368L247.6 174.336C261.382 175.061 272.989 175.545 273.714 176.028ZM209.638 236.719C212.781 246.391 212.781 246.149 208.429 246.149C205.044 246.149 204.802 245.666 204.802 237.686C204.802 233.092 205.285 229.223 206.011 229.223C206.736 229.223 208.429 232.609 209.638 236.719ZM365.839 238.17C365.839 246.875 365.839 247.116 362.212 246.391C360.277 246.149 358.585 245.666 358.585 245.424C358.585 245.182 361.728 235.994 363.662 230.674C365.113 227.047 365.839 229.465 365.839 238.17ZM224.387 272.021C229.707 282.902 240.346 297.168 247.116 302.971C252.194 306.84 252.194 306.84 248.809 308.049C246.875 308.533 243.006 309.016 240.346 309.016C237.444 309.016 235.026 309.5 235.026 309.984C235.026 310.467 240.83 320.623 247.842 332.229C259.206 351.089 261.624 356.409 267.911 375.752L274.923 397.756L274.681 427.739L274.198 457.721L253.887 430.157C242.764 415.165 231.883 399.932 229.465 396.789L225.113 390.986L235.752 375.752C241.555 367.289 246.391 360.036 246.391 359.31C246.391 358.585 237.203 346.253 225.838 332.229L205.044 306.115L205.527 286.287L206.011 266.218L211.089 265.251C213.748 264.768 217.133 264.284 218.101 264.042C219.068 263.317 221.728 266.702 224.387 272.021ZM363.421 265.493C365.355 266.218 365.597 269.362 365.597 286.287V306.357L345.044 331.987C333.438 346.253 324.733 358.585 325.217 359.794C325.458 360.761 330.536 368.015 336.098 375.994L346.011 390.26L343.351 394.129C341.901 396.305 330.778 412.264 318.688 429.915L296.685 461.832L296.201 429.431L295.959 397.03L302.971 375.269C309.5 355.2 311.192 351.814 324.25 331.504L338.516 309.5L329.327 308.291L320.139 307.082L328.36 298.377C332.954 293.541 339.966 284.111 343.835 277.099C350.605 265.251 351.089 264.768 356.167 264.768C358.826 264.768 362.212 265.009 363.421 265.493ZM182.073 272.747C182.073 276.374 181.831 276.374 179.171 273.956C176.27 271.296 176.512 268.878 180.139 268.878C181.348 268.878 182.073 270.329 182.073 272.747ZM394.129 269.845C394.129 270.329 392.92 272.263 391.227 274.198L388.326 277.825V273.23C388.326 269.845 388.809 268.878 391.227 268.878C392.92 268.878 394.129 269.362 394.129 269.845ZM267.911 313.127L274.681 314.82V327.877C274.681 335.614 274.198 340.208 273.472 339.483C272.021 337.548 253.403 309.016 253.403 308.291C253.403 308.049 255.096 308.533 257.272 309.742C259.206 310.709 264.042 312.16 267.911 313.127ZM308.049 323.282C302.971 331.504 298.135 338.516 297.41 339.483C296.685 340.208 296.201 335.614 296.201 327.877V314.82L302.246 313.852C305.631 313.369 309.742 311.918 311.676 310.951C313.61 309.984 315.545 309.016 316.27 309.016C316.754 308.775 313.127 315.303 308.049 323.282Z" fill="black" stroke="#EC3B26" stroke-width="2" mask="url(#path-2-inside-1_47_207)"/>
<path d="M559.276 545.961H548.412V273.23V0.5H559.276H570.141V273.23V545.961H559.276Z" fill="black" stroke="#EC3B26"/>
</svg>
